<?xml version="1.0" encoding="UTF-8" standalone="no"?>
<svg
   xmlns:dc="http://purl.org/dc/elements/1.1/"
   xmlns:cc="http://creativecommons.org/ns#"
   xmlns:rdf="http://www.w3.org/1999/02/22-rdf-syntax-ns#"
   xmlns:svg="http://www.w3.org/2000/svg"
   xmlns="http://www.w3.org/2000/svg"
   xmlns:sodipodi="http://sodipodi.sourceforge.net/DTD/sodipodi-0.dtd"
   xmlns:inkscape="http://www.inkscape.org/namespaces/inkscape"
   version="1.0"
   width="1642pt"
   height="549pt"
   viewBox="0 0 1642 549"
   preserveAspectRatio="xMidYMid meet"
   id="svg14"
   sodipodi:docname="jake.svg"
   inkscape:version="0.92.3 (2405546, 2018-03-11)">
  <title
     id="title828">Jake</title>
  <defs
     id="defs18" />
  <sodipodi:namedview
     pagecolor="#ffb8ff"
     bordercolor="#666666"
     borderopacity="1"
     objecttolerance="10"
     gridtolerance="10"
     guidetolerance="10"
     inkscape:pageopacity="0"
     inkscape:pageshadow="2"
     inkscape:window-width="2880"
     inkscape:window-height="1675"
     id="namedview16"
     showgrid="false"
     inkscape:zoom="0.085748374"
     inkscape:cx="-355.45984"
     inkscape:cy="1570.2892"
     inkscape:window-x="-13"
     inkscape:window-y="2147"
     inkscape:window-maximized="1"
     inkscape:current-layer="svg14"
     inkscape:pagecheckerboard="false"
     showborder="true"
     fit-margin-top="0"
     fit-margin-left="0"
     fit-margin-right="0"
     fit-margin-bottom="0" />
  <metadata
     id="metadata2">
Created by potrace 1.15, written by Peter Selinger 2001-2017
<rdf:RDF>
  <cc:Work
     rdf:about="">
    <dc:format>image/svg+xml</dc:format>
    <dc:type
       rdf:resource="http://purl.org/dc/dcmitype/StillImage" />
    <dc:title>Jake</dc:title>
  </cc:Work>
</rdf:RDF>
</metadata>
  <g
     transform="matrix(0.1,0,0,-0.1,-36,594)"
     id="g12"
     style="fill:#ffffff;stroke:none">
    <path
       d="M 2950,3980 V 2020 h -775 -775 v 490 490 H 880 360 v -490 -490 h 80 80 v -295 -295 h 180 180 v -195 -195 h 80 80 V 745 450 h 1395 1395 v 490 490 h 255 255 v 2055 2055 h -175 -175 v 200 200 H 3470 2950 Z M 4280,3485 V 1490 H 4020 3760 V 1000 510 H 2430 1100 v 265 265 h 35 35 V 810 580 h 1260 1260 v 490 490 h 260 260 v 1925 1925 h -110 -110 v 35 35 h 145 145 z m -130,0 V 1620 H 3890 3630 V 1130 640 H 2435 1240 v 200 200 h 1115 1115 v 490 490 h 260 260 v 1665 1665 h 80 80 z M 660,1790 v -230 h 110 110 v -35 -35 H 730 580 v 265 265 h 40 40 z m 220,30 v -200 h -80 -80 v 200 200 h 80 80 z"
       id="path4"
       inkscape:connector-curvature="0"
       style="fill:#ffffff" />
    <path
       d="M 5020,5450 V 4960 H 4760 4500 V 3000 1040 h 80 80 V 745 450 h 620 620 v 980 980 h 595 595 v -685 -685 h 80 80 V 745 450 h 620 620 v 2055 2055 h -180 -180 v 200 200 h -80 -80 v 290 290 h -180 -180 v 200 200 H 6315 5020 Z m 2890,-230 v -260 h -40 -40 v 225 225 h -110 -110 v 35 35 h 150 150 z m -140,-65 v -195 h -80 -80 v 195 195 h 80 80 z m -680,-395 v -200 h -695 -695 v -290 -290 h -80 -80 v 490 490 h 775 775 z m 0,-295 v -35 h -625 -625 v -225 -225 h -40 -40 v 260 260 h 665 665 z M 8430,2505 V 510 h -555 -555 v 265 265 h 35 35 V 810 580 h 480 480 v 1925 1925 h -110 -110 v 35 35 h 150 150 z M 7090,4175 v -195 h -595 -595 v 195 195 h 595 595 z M 8290,2505 V 640 h -420 -420 v 200 200 h 340 340 v 1665 1665 h 80 80 z M 7090,2800 V 2600 H 6395 5700 V 1620 640 h -420 -420 v 200 200 h 340 340 v 980 980 h 775 775 z m 0,-295 v -35 H 6465 5840 V 1490 510 h -555 -555 v 265 265 h 35 35 V 810 580 h 480 480 v 980 980 h 665 665 z"
       id="path6"
       inkscape:connector-curvature="0"
       style="fill:#ffffff" />
    <path
       d="M 8650,3490 V 1040 h 80 80 V 745 450 h 615 615 v 980 980 h 340 340 v -195 -195 h 260 260 v -490 -490 h 80 80 V 745 450 h 615 615 v 585 585 h -180 -180 v 200 200 h -80 -80 v 290 290 h -175 -175 v 200 200 h -80 -80 v 195 195 h 255 255 v 490 490 h 260 260 v 585 585 h -180 -180 v 200 200 h -515 -515 v -490 -490 h -260 -260 v -490 -490 h -340 -340 v 780 780 h -180 -180 v 200 200 h -515 -515 z m 1330,1240 v -750 h -35 -35 v 715 715 h -115 -115 v 35 35 h 150 150 z m 2590,225 v -525 h -260 -260 v -490 -490 h -260 -260 v -225 -225 h -35 -35 v 260 260 h 260 260 v 490 490 h 260 260 v 455 455 h -115 -115 v 35 35 h 150 150 z M 9840,4665 v -685 h -80 -80 v 685 685 h 80 80 z m 2590,290 v -395 h -255 -255 v -490 -490 h -260 -260 v -290 -290 h -80 -80 v 490 490 h 260 260 v 490 490 h 255 255 v 195 195 h 80 80 z M 10720,2800 v -200 h -440 -440 V 1620 640 h -415 -415 v 200 200 h 335 335 v 980 980 h 520 520 z m 0,-295 v -35 h -370 -370 V 1490 510 h -555 -555 v 265 265 h 35 35 V 810 580 h 485 485 v 980 980 h 405 405 z m 1330,-225 v -260 h -35 -35 v 225 225 h -110 -110 v 35 35 h 145 145 z m -130,-65 v -195 h -80 -80 v 195 195 h 80 80 z m 650,-1180 V 510 h -555 -555 v 265 265 h 35 35 V 810 580 h 485 485 v 455 455 h -115 -115 v 35 35 h 150 150 z m -140,0 V 640 h -415 -415 v 200 200 h 335 335 v 195 195 h 80 80 z"
       id="path8"
       inkscape:connector-curvature="0"
       style="fill:#ffffff" />
    <path
       d="M 12790,3490 V 1040 h 80 80 V 745 450 h 1915 1915 v 585 585 h -180 -180 v 200 200 h -1115 -1115 v 195 195 h 775 775 v 585 585 h -180 -180 v 200 200 h -595 -595 v 195 195 h 1295 1295 v 585 585 h -180 -180 v 200 200 h -1815 -1815 z m 3920,1465 v -525 h -1295 -1295 v -225 -225 h -35 -35 v 260 260 h 1295 1295 v 455 455 h -110 -110 v 35 35 h 145 145 z m -130,0 v -395 h -1295 -1295 v -290 -290 h -80 -80 v 490 490 h 1295 1295 v 195 195 h 80 80 z m -900,-1960 v -525 h -780 -780 v -225 -225 h -35 -35 v 260 260 h 775 775 v 455 455 h -110 -110 v 35 35 h 150 150 z m -140,0 v -395 h -775 -775 v -290 -290 h -80 -80 v 490 490 h 775 775 v 195 195 h 80 80 z M 16710,1035 V 510 h -1850 -1850 v 265 265 h 40 40 V 810 580 h 1775 1775 v 455 455 h -110 -110 v 35 35 h 145 145 z m -130,0 V 640 h -1715 -1715 v 200 200 h 1635 1635 v 195 195 h 80 80 z"
       id="path10"
       inkscape:connector-curvature="0"
       style="fill:#ffffff" />
  </g>
</svg>
