<?xml version="1.0" encoding="UTF-8" standalone="no"?>
<svg
   xmlns:dc="http://purl.org/dc/elements/1.1/"
   xmlns:cc="http://creativecommons.org/ns#"
   xmlns:rdf="http://www.w3.org/1999/02/22-rdf-syntax-ns#"
   xmlns:svg="http://www.w3.org/2000/svg"
   xmlns="http://www.w3.org/2000/svg"
   xmlns:sodipodi="http://sodipodi.sourceforge.net/DTD/sodipodi-0.dtd"
   xmlns:inkscape="http://www.inkscape.org/namespaces/inkscape"
   version="1.0"
   width="2211pt"
   height="549pt"
   viewBox="0 0 2211 549"
   preserveAspectRatio="xMidYMid meet"
   id="svg16"
   sodipodi:docname="jones.svg"
   inkscape:version="0.92.3 (2405546, 2018-03-11)">
  <title
     id="title827">Jones</title>
  <defs
     id="defs20" />
  <sodipodi:namedview
     pagecolor="#ffffff"
     bordercolor="#666666"
     borderopacity="1"
     objecttolerance="10"
     gridtolerance="10"
     guidetolerance="10"
     inkscape:pageopacity="0"
     inkscape:pageshadow="2"
     inkscape:window-width="2880"
     inkscape:window-height="1675"
     id="namedview18"
     showgrid="false"
     fit-margin-top="0"
     fit-margin-left="0"
     fit-margin-right="0"
     fit-margin-bottom="0"
     inkscape:zoom="0.18733363"
     inkscape:cx="1460"
     inkscape:cy="-1759.2279"
     inkscape:window-x="-13"
     inkscape:window-y="2147"
     inkscape:window-maximized="1"
     inkscape:current-layer="svg16" />
  <metadata
     id="metadata2">
Created by potrace 1.15, written by Peter Selinger 2001-2017
<rdf:RDF>
  <cc:Work
     rdf:about="">
    <dc:format>image/svg+xml</dc:format>
    <dc:type
       rdf:resource="http://purl.org/dc/dcmitype/StillImage" />
    <dc:title>Jones</dc:title>
  </cc:Work>
</rdf:RDF>
</metadata>
  <g
     transform="matrix(0.1,0,0,-0.1,-32,607)"
     id="g14"
     style="fill:#ffffff;stroke:none">
    <path
       d="M 2910,4110 V 2150 h -780 -780 v 490 490 H 835 320 v -490 -490 h 80 80 v -295 -295 h 180 180 v -195 -195 h 80 80 V 875 580 h 1390 1390 v 490 490 h 260 260 v 2055 2055 h -180 -180 v 200 200 H 3425 2910 Z M 4240,3615 V 1620 H 3980 3720 V 1130 640 H 2390 1060 v 265 265 h 35 35 V 940 710 h 1260 1260 v 490 490 h 260 260 v 1925 1925 h -115 -115 v 35 35 h 150 150 z m -140,0 V 1750 H 3845 3590 V 1260 770 H 2390 1190 v 200 200 h 1120 1120 v 490 490 h 255 255 v 1665 1665 h 80 80 z M 610,1920 v -230 h 115 115 v -35 -35 H 690 540 v 265 265 h 35 35 z m 230,30 v -200 h -80 -80 v 200 200 h 80 80 z"
       id="path4"
       inkscape:connector-curvature="0"
       style="fill:#ffffff" />
    <path
       d="M 4980,5580 V 5090 H 4720 4460 V 3620 2150 h 80 80 v -295 -295 h 180 180 v -195 -195 h 80 80 V 875 580 h 1655 1655 v 490 490 h 255 255 v 1565 1565 h -175 -175 v 200 200 h -80 -80 v 290 290 h -180 -180 v 200 200 H 6535 4980 Z m 3400,-230 v -260 h -35 -35 v 225 225 h -110 -110 v 35 35 h 145 145 z m -130,-65 v -195 h -80 -80 v 195 195 h 80 80 z M 7570,4890 V 4690 H 6615 5660 V 3420 2150 h -80 -80 v 1470 1470 h 1035 1035 z m 0,-295 v -35 H 6680 5790 V 3355 2150 h -35 -35 v 1240 1240 h 925 925 z M 8900,3125 V 1620 H 8640 8380 V 1130 640 H 6790 5200 v 265 265 h 40 40 V 940 710 h 1515 1515 v 490 490 h 260 260 v 1435 1435 h -110 -110 v 35 35 h 145 145 z M 7570,3325 V 2150 h -855 -855 v 1175 1175 h 855 855 z M 8770,3125 V 1750 H 8510 8250 V 1260 770 H 6795 5340 v 200 200 h 1375 1375 v 490 490 h 260 260 v 1175 1175 h 80 80 z M 4760,1920 v -230 h 110 110 v -35 -35 h -150 -150 v 265 265 h 40 40 z m 220,30 v -200 h -80 -80 v 200 200 h 80 80 z"
       id="path6"
       inkscape:connector-curvature="0"
       style="fill:#ffffff" />
    <path
       d="M 9120,3620 V 1170 h 80 80 V 875 580 h 620 620 v 1470 1470 h 80 80 v -195 -195 h 80 80 v -295 -295 h 180 180 v -195 -195 h 80 80 v -295 -295 h 175 175 v -195 -195 h 80 80 V 875 580 h 1135 1135 v 2545 2545 h -175 -175 v 200 200 h -520 -520 V 4110 2150 h -80 -80 v 290 290 h -180 -180 v 200 200 h -80 -80 v 290 290 h -180 -180 v 200 200 h -80 -80 v 290 290 h -175 -175 v 200 200 h -80 -80 v 290 290 h -180 -180 v 200 200 h -780 -780 z m 1850,1730 v -260 h -35 -35 v 225 225 h -110 -110 v 35 35 h 145 145 z M 14080,3125 V 640 h -1070 -1070 v 265 265 h 35 35 V 940 710 h 1000 1000 v 2415 2415 h -110 -110 v 35 35 h 145 145 z m -3240,2160 v -195 h -80 -80 v 195 195 h 80 80 z M 13950,3125 V 770 h -940 -940 v 200 200 h 860 860 v 2155 2155 h 80 80 z m -2460,1245 v -260 h -35 -35 v 225 225 h -110 -110 v 35 35 h 145 145 z m -130,-65 v -195 h -80 -80 v 195 195 h 80 80 z m -680,-395 v -200 h -180 -180 V 2240 770 h -420 -420 v 200 200 h 340 340 v 1470 1470 h 260 260 z m 0,-295 v -35 h -110 -110 V 2110 640 h -555 -555 v 265 265 h 35 35 V 940 710 h 480 480 v 1470 1470 h 150 150 z m 1330,-225 v -260 h -35 -35 v 225 225 h -115 -115 v 35 35 h 150 150 z m -140,-65 v -195 h -80 -80 v 195 195 h 80 80 z m -900,-425 v -230 h 115 115 v -35 -35 h -150 -150 v 265 265 h 35 35 z m 230,30 v -200 h -80 -80 v 200 200 h 80 80 z m 1330,-520 v -260 h -40 -40 v 225 225 h -110 -110 v 35 35 h 150 150 z m -140,-65 v -195 h -80 -80 v 195 195 h 80 80 z m -900,-425 v -230 h 110 110 v -35 -35 h -145 -145 v 265 265 h 35 35 z m 220,30 v -200 h -80 -80 v 200 200 h 80 80 z"
       id="path8"
       inkscape:connector-curvature="0"
       style="fill:#ffffff" />
    <path
       d="M 14300,3620 V 1170 h 80 80 V 875 580 h 1915 1915 v 585 585 h -180 -180 v 200 200 h -1115 -1115 v 195 195 h 775 775 v 585 585 h -180 -180 v 200 200 h -595 -595 v 195 195 h 1295 1295 v 585 585 h -180 -180 v 200 200 h -1815 -1815 z m 3930,1465 v -525 h -1295 -1295 v -225 -225 h -40 -40 v 260 260 h 1295 1295 v 455 455 h -110 -110 v 35 35 h 150 150 z m -140,0 v -395 h -1295 -1295 v -290 -290 h -80 -80 v 490 490 h 1295 1295 v 195 195 h 80 80 z m -900,-1960 v -525 h -775 -775 v -225 -225 h -40 -40 v 260 260 h 780 780 v 455 455 h -115 -115 v 35 35 h 150 150 z m -140,0 v -395 h -775 -775 v -290 -290 h -80 -80 v 490 490 h 775 775 v 195 195 h 80 80 z M 18230,1165 V 640 h -1850 -1850 v 265 265 h 35 35 V 940 710 h 1775 1775 v 455 455 h -110 -110 v 35 35 h 150 150 z m -140,0 V 770 h -1715 -1715 v 200 200 h 1635 1635 v 195 195 h 80 80 z"
       id="path10"
       inkscape:connector-curvature="0"
       style="fill:#ffffff" />
    <path
       d="M 18450,4600 V 3130 h 80 80 v -295 -295 h 1215 1215 v -195 -195 h -1295 -1295 v -490 -490 h 80 80 V 875 580 h 1910 1910 v 1565 1565 h -180 -180 v 200 200 h -1115 -1115 v 195 195 h 1295 1295 v 585 585 h -180 -180 v 200 200 h -1810 -1810 z m 3920,485 v -525 h -1295 -1295 v -225 -225 h -35 -35 v 260 260 h 1295 1295 v 455 455 h -115 -115 v 35 35 h 150 150 z m -140,0 v -395 h -1295 -1295 v -290 -290 h -80 -80 v 490 490 h 1295 1295 v 195 195 h 80 80 z m 140,-2940 V 640 h -1850 -1850 v 265 265 h 35 35 V 940 710 h 1780 1780 v 1435 1435 h -115 -115 v 35 35 h 150 150 z m -140,0 V 770 h -1710 -1710 v 200 200 h 1630 1630 v 1175 1175 h 80 80 z m -3490,755 v -230 h 1150 1150 v -35 -35 h -1185 -1185 v 265 265 h 35 35 z m 2300,30 v -200 h -1115 -1115 v 200 200 h 1115 1115 z"
       id="path12"
       inkscape:connector-curvature="0"
       style="fill:#ffffff" />
  </g>
</svg>
